<svg id="Layer_1" xmlns="http://www.w3.org/2000/svg" viewBox="0 0 698.8 198.3"><style>.st0{fill:#555759}</style><path class="st0" d="M209.4 83.1l.6.2c.6.2 14.5 4.5 26.2 4.5 12.3 0 24.8-5 34.4-13.8 8.6-7.9 13.4-18.8 13.4-30.7 0-12-4.7-22.9-13.3-30.8-8.7-8-21-12.5-34.5-12.5h-26.8v83.1zm26.7-5.8c-6.8 0-12.7-1.2-14.9-1.7l-.3-.1V10.4h15.2c21.1 0 35.8 13.4 35.8 32.6.1 19.5-15.4 34.3-35.8 34.3zM324.1 21c-8.9 0-17.1 3.5-23 9.8-5.9 6.2-9.1 14.6-9.1 23.5 0 9.5 3.4 17.8 9.8 24 6.1 6 14.5 9.3 23.6 9.3 11.3 0 19.7-3.7 27.5-12l.6-.6-7.3-6.2-.5.5c-5.8 5.9-12.2 8.6-20 8.6-11.7 0-20.3-7.4-22-18.8l-.1-.4h51.6l.1-.7c.1-1.1.1-2.1.1-3 0-9.4-2.9-17.9-8.2-24-5.7-6.6-13.7-10-23.1-10zm19.7 29.1h-40.3l.1-.4c1.7-11.6 9.9-19.3 20.3-19.3 8.5 0 18.2 5.1 19.9 19.3v.4zM413.9 86.3h11.3V46.6c0-7.6-2.4-14.1-6.8-18.7-4.6-4.7-11.1-7.2-19-7.2-19.6 0-32 6.7-32.5 7l-.4.2v58.3h11.3V34.5l.2-.1c5.8-2.6 11.3-3.7 18.6-3.7 5.4 0 9.8 1.7 12.8 4.8 2.9 3.1 4.5 7.7 4.5 13.3v37.5zM535.2 105.7h11.3V83.3l.5.2c8.2 3.2 13.7 4.2 22.1 4.2 18.7 0 30.3-12.8 30.3-33.5 0-10.3-3.1-18.8-9-24.6-5.8-5.7-14.2-8.7-24.3-8.7-16.9 0-29.9 6.7-30.4 7l-.4.2-.1 77.6zm33.7-28c-7.2 0-13.5-.9-22.6-5.6l-.2-.1V34.9l.2-.1c1.8-.9 8.5-4 18.8-4 15 0 22.6 7.9 22.6 23.5 0 15.1-6.7 23.4-18.8 23.4zM545.1 130.9c-20.3 0-33.4 13.1-33.4 33.4 0 10.1 2.8 18.6 8.2 24.6 5.1 5.7 12.4 8.9 20.5 8.9 8.3 0 14.7-1.6 23.7-5.9l.5-.2v4.8h11.3v-58.3l-.4-.2c-.5-.3-13.4-7.1-30.4-7.1zm-2.9 57c-6 0-10.7-2-14-6.1-3.2-4-4.9-10-4.9-17.3 0-19.5 12.4-23.5 22.7-23.5 10.4 0 17 3.1 18.8 4l.2.1v35.3l-.2.1c-8.5 5-15.7 7.4-22.6 7.4zM609.5 86.3h11.3V3.2h-11.3v83.1zM633.5 102.5l.7.3c4.9 2.3 9 3.2 14.2 3.2 10.4 0 16.9-5.3 22.5-18.2L698.8 22h-12.1l-20.5 51L643 22h-12.5l30.1 63.2-.1.1c-3.6 7.9-6.9 10.8-12.5 10.8-3.9 0-6.7-.6-9.9-2.2l-.7-.4-3.9 9zM205.1 183.4l.6.5c11 9.4 22.6 13.8 36.7 13.8 8.9 0 16.6-2.3 22.2-6.7 5.8-4.5 8.8-10.8 8.8-18.2 0-13.1-8.8-20.6-29.4-24.9-19.8-4.1-23.4-8.5-23.4-15.8 0-7.7 7.4-13 18-13 9.2 0 17.1 2.9 25 9l.6.5 6.8-8.6-.6-.5c-9.6-7.4-19.1-10.6-31.6-10.6-17.3 0-29.9 10.1-29.9 24 0 7.3 2.4 12.5 7.5 16.6 4.7 3.7 12 6.5 22.8 8.8 18.9 3.8 22.4 8.2 22.4 15.4 0 8.2-7.6 13.7-18.9 13.7-11.5 0-20.1-3.4-29.8-11.8l-.6-.5-7.2 8.3zM393.1 130.9c-19.6 0-34.9 14.8-34.9 33.6 0 18.7 15.2 33.4 34.7 33.4 9.6 0 18.5-3.5 25.1-10 6.4-6.3 10-14.7 10-23.6-.2-18.7-15.4-33.4-34.9-33.4zm0 57.1c-13.1 0-23.3-10.4-23.3-23.7 0-6.5 2.3-12.4 6.4-16.7 4.2-4.4 10.1-6.8 16.7-6.8 13.2 0 23.5 10.4 23.5 23.8 0 6.4-2.3 12.3-6.5 16.6-4.4 4.3-10.3 6.8-16.8 6.8zM487.5 196.5h11.3v-39.7c0-7.6-2.4-14.1-6.8-18.7-4.6-4.7-11.1-7.2-19-7.2-19.6 0-32 6.7-32.5 7l-.4.2v58.4h11.3v-51.7l.2-.1c5.8-2.6 11.3-3.7 18.6-3.7 5.4 0 9.8 1.7 12.8 4.8 2.9 3.1 4.5 7.7 4.5 13.3v37.4zM287.4 196.5h11.3v-64.2h-11.3v64.2zM315.8 196.5h11.3v-52.4l.1-.1c2.9-2 7.1-3.3 11.3-3.3 6.9 0 11 2.3 15 4.5l1.2.7 4.9-9-.7-.4c-6.2-3.5-11.6-5.6-20.4-5.6-14.2 0-22.1 5.8-22.4 6l-.3.2v59.4zM440 3.2v66.4c0 6.4 1.8 11.2 5.2 14.2s7.5 3.6 10.4 3.6c3.6 0 6.9-.7 10.2-2.2l-3.4-8.9c-1.5.7-2.9 1.1-4.3 1.1-3 0-6.8 0-6.8-9V31.9h11.3v-9.8h-11.3V3.2H440zM287.2 124.4h12.1v-11h-12.1v11z"/><g><path class="st0" d="M44.6 0c62.7 0 106.9 39.8 106.6 96.9-.1 12.6-1.7 19.4-4.1 28.6-9.6-26.5-36.8-37.1-77.9-45.7-59-14.1-67-27.2-69-45.4V.1L44.6 0zM122.9 157c0-21.2-11.4-31.5-64.1-42.9-31.9-6.9-45.6-12.6-58.8-23.3v90c17.8 10.9 43.2 17.5 56.5 17.5 44.8 0 66.4-19.6 66.4-41.3z"/></g><g><path class="st0" d="M472.5 77.7l.6.5c7.4 5.8 18 9.4 27.5 9.4 6.7 0 12.7-1.8 17-5.1 4.6-3.5 7.1-8.5 7.1-14.5v-.2c0-12.5-13-16.2-21.5-18.7l-.2-.1c-8.2-2.4-16-4.7-16-9.9v-.2c0-4.9 4.9-8.3 11.8-8.3 6 0 12.7 2.1 18.9 5.9l.7.4 5.3-8.4-.7-.4c-7-4.4-15.9-7-23.9-7-13.6 0-23 7.7-23 18.7v.2c0 12.4 12.8 15.9 22.2 18.4 8.6 2.3 15.7 4.7 15.7 10.3v.2c0 5.5-5.1 9.1-12.7 9.1-7.4 0-15-2.7-22.2-7.8l-.6-.5-6 8z"/></g></svg>